<svg id="icon-arrow" width="24" height="24" viewBox="0 0 24 24" fill="none" xmlns="http://www.w3.org/2000/svg">
<path fill-rule="evenodd" clip-rule="evenodd" d="M15.2125 12.075C15.2541 11.9583 15.275 11.8333 15.275 11.7C15.275 11.5667 15.2541 11.4417 15.2125 11.325C15.1708 11.2083 15.1 11.1 15 11L10.4 6.4C10.2166 6.21667 9.98331 6.125 9.69998 6.125C9.41664 6.125 9.18331 6.21667 8.99998 6.4C8.81664 6.58333 8.72498 6.81667 8.72498 7.1C8.72498 7.38333 8.81664 7.61667 8.99998 7.8L12.9 11.7L8.99998 15.6C8.81664 15.7833 8.72498 16.0167 8.72498 16.3C8.72498 16.5833 8.81664 16.8167 8.99998 17C9.18331 17.1833 9.41664 17.275 9.69998 17.275C9.98331 17.275 10.2166 17.1833 10.4 17L15 12.4C15.1 12.3 15.1708 12.1917 15.2125 12.075Z" fill="currentColor"/>
</svg>
