<svg width="40" height="40" viewBox="0 0 40 40" fill="none" xmlns="http://www.w3.org/2000/svg">
<path d="M20.0001 21.9447L11.4447 30.5001C11.1761 30.7687 10.8519 30.903 10.4722 30.903C10.0927 30.903 9.7687 30.7687 9.50008 30.5001C9.23147 30.2315 9.09717 29.9074 9.09717 29.528C9.09717 29.1483 9.23147 28.8241 9.50008 28.5555L18.0555 20.0001L9.50008 11.4447C9.23147 11.1761 9.09717 10.8519 9.09717 10.4722C9.09717 10.0927 9.23147 9.7687 9.50008 9.50008C9.7687 9.23147 10.0927 9.09717 10.4722 9.09717C10.8519 9.09717 11.1761 9.23147 11.4447 9.50008L20.0001 18.0555L28.5555 9.50008C28.8241 9.23147 29.1483 9.09717 29.528 9.09717C29.9074 9.09717 30.2315 9.23147 30.5001 9.50008C30.7687 9.7687 30.903 10.0927 30.903 10.4722C30.903 10.8519 30.7687 11.1761 30.5001 11.4447L21.9447 20.0001L30.5001 28.5555C30.7687 28.8241 30.903 29.1483 30.903 29.528C30.903 29.9074 30.7687 30.2315 30.5001 30.5001C30.2315 30.7687 29.9074 30.903 29.528 30.903C29.1483 30.903 28.8241 30.7687 28.5555 30.5001L20.0001 21.9447Z" fill="currentColor"/>
</svg>
