<svg width="24" height="24" viewBox="0 0 24 24" fill="none" xmlns="http://www.w3.org/2000/svg">
<path fill-rule="evenodd" clip-rule="evenodd" d="M3 16.75V21H7.25L20.425 7.825C20.625 7.625 20.7708 7.40417 20.8625 7.1625C20.9542 6.92083 21 6.66667 21 6.4C21 6.15 20.9542 5.9 20.8625 5.65C20.7708 5.4 20.625 5.18333 20.425 5L19.05 3.6C18.8667 3.4 18.65 3.25 18.4 3.15C18.15 3.05 17.8917 3 17.625 3C17.3583 3 17.1042 3.05 16.8625 3.15C16.6208 3.25 16.4 3.39167 16.2 3.575L3 16.75ZM19 6.4L17.6 7.8L16.2 6.4L17.6 5L19 6.4Z" fill="currentColor"/>
</svg>
