<svg width="24" height="24" viewBox="0 0 24 24" fill="none" xmlns="http://www.w3.org/2000/svg">
<path fill-rule="evenodd" clip-rule="evenodd" d="M5.5875 20.4125C5.97917 20.8042 6.45 21 7 21H17C17.55 21 18.0208 20.8042 18.4125 20.4125C18.8042 20.0208 19 19.55 19 19V6C19.2833 6 19.5208 5.90417 19.7125 5.7125C19.9042 5.52083 20 5.28333 20 5C20 4.71667 19.9042 4.47917 19.7125 4.2875C19.5208 4.09583 19.2833 4 19 4H15C15 3.71667 14.9042 3.47917 14.7125 3.2875C14.5208 3.09583 14.2833 3 14 3H10C9.71667 3 9.47917 3.09583 9.2875 3.2875C9.09583 3.47917 9 3.71667 9 4H5C4.71667 4 4.47917 4.09583 4.2875 4.2875C4.09583 4.47917 4 4.71667 4 5C4 5.28333 4.09583 5.52083 4.2875 5.7125C4.47917 5.90417 4.71667 6 5 6V19C5 19.55 5.19583 20.0208 5.5875 20.4125ZM10.7125 16.7125C10.5208 16.9042 10.2833 17 10 17C9.71667 17 9.47917 16.9042 9.2875 16.7125C9.09583 16.5208 9 16.2833 9 16V9C9 8.71667 9.09583 8.47917 9.2875 8.2875C9.47917 8.09583 9.71667 8 10 8C10.2833 8 10.5208 8.09583 10.7125 8.2875C10.9042 8.47917 11 8.71667 11 9V16C11 16.2833 10.9042 16.5208 10.7125 16.7125ZM14.7125 16.7125C14.5208 16.9042 14.2833 17 14 17C13.7167 17 13.4792 16.9042 13.2875 16.7125C13.0958 16.5208 13 16.2833 13 16V9C13 8.71667 13.0958 8.47917 13.2875 8.2875C13.4792 8.09583 13.7167 8 14 8C14.2833 8 14.5208 8.09583 14.7125 8.2875C14.9042 8.47917 15 8.71667 15 9V16C15 16.2833 14.9042 16.5208 14.7125 16.7125Z" fill="#E90000"/>
</svg>
