<svg width="25" height="25" viewBox="0 0 25 25" fill="none" xmlns="http://www.w3.org/2000/svg">
<path fill-rule="evenodd" clip-rule="evenodd" d="M11.9 5.91089C8.77959 5.91089 6.25 8.44048 6.25 11.5609C6.25 14.6813 8.77959 17.2109 11.9 17.2109C15.0204 17.2109 17.55 14.6813 17.55 11.5609C17.55 8.44048 15.0204 5.91089 11.9 5.91089ZM4.75 11.5609C4.75 7.61205 7.95116 4.41089 11.9 4.41089C15.8488 4.41089 19.05 7.61205 19.05 11.5609C19.05 15.5097 15.8488 18.7109 11.9 18.7109C7.95116 18.7109 4.75 15.5097 4.75 11.5609Z" fill="currentColor"/>
<path fill-rule="evenodd" clip-rule="evenodd" d="M20.9697 21.6912L16.1697 16.8912L17.2303 15.8306L22.0303 20.6306C22.3232 20.9235 22.3232 21.3983 22.0303 21.6912C21.7374 21.9841 21.2626 21.9841 20.9697 21.6912Z" fill="currentColor"/>
</svg>
