<svg width="65" height="64" viewBox="0 0 65 64" fill="none" xmlns="http://www.w3.org/2000/svg">
<rect x="0.5" width="64" height="64" rx="32" fill="#00C03A"/>
<path d="M28.4995 37.5572L23.8729 32.9305C23.6236 32.6812 23.2854 32.5411 22.9329 32.5411C22.5803 32.5411 22.2422 32.6812 21.9929 32.9305C21.7436 33.1798 21.6035 33.5179 21.6035 33.8705C21.6035 34.0451 21.6379 34.2179 21.7047 34.3792C21.7715 34.5405 21.8694 34.6871 21.9929 34.8105L27.5662 40.3838C28.0862 40.9038 28.9262 40.9038 29.4462 40.3838L43.5529 26.2772C43.8022 26.0279 43.9422 25.6897 43.9422 25.3372C43.9422 24.9846 43.8022 24.6465 43.5529 24.3972C43.3036 24.1479 42.9654 24.0078 42.6129 24.0078C42.2603 24.0078 41.9222 24.1479 41.6729 24.3972L28.4995 37.5572Z" fill="white"/>
</svg>
