<svg width="24" height="24" viewBox="0 0 24 24" fill="none" xmlns="http://www.w3.org/2000/svg">
<path fill-rule="evenodd" clip-rule="evenodd" d="M11.625 15.5125C11.7417 15.5542 11.8667 15.575 12 15.575C12.1333 15.575 12.2583 15.5542 12.375 15.5125C12.4917 15.4708 12.6 15.4 12.7 15.3L16.3 11.7C16.5 11.5 16.5958 11.2667 16.5875 11C16.5792 10.7333 16.4833 10.5 16.3 10.3C16.1 10.1 15.8625 9.99583 15.5875 9.9875C15.3125 9.97917 15.075 10.075 14.875 10.275L13 12.15V5C13 4.71667 12.9042 4.47917 12.7125 4.2875C12.5208 4.09583 12.2833 4 12 4C11.7167 4 11.4792 4.09583 11.2875 4.2875C11.0958 4.47917 11 4.71667 11 5V12.15L9.125 10.275C8.925 10.075 8.6875 9.97917 8.4125 9.9875C8.1375 9.99583 7.9 10.1 7.7 10.3C7.51667 10.5 7.42083 10.7333 7.4125 11C7.40417 11.2667 7.5 11.5 7.7 11.7L11.3 15.3C11.4 15.4 11.5083 15.4708 11.625 15.5125ZM4.5875 19.4125C4.97917 19.8042 5.45 20 6 20H18C18.55 20 19.0208 19.8042 19.4125 19.4125C19.8042 19.0208 20 18.55 20 18V16C20 15.7167 19.9042 15.4792 19.7125 15.2875C19.5208 15.0958 19.2833 15 19 15C18.7167 15 18.4792 15.0958 18.2875 15.2875C18.0958 15.4792 18 15.7167 18 16V18H6V16C6 15.7167 5.90417 15.4792 5.7125 15.2875C5.52083 15.0958 5.28333 15 5 15C4.71667 15 4.47917 15.0958 4.2875 15.2875C4.09583 15.4792 4 15.7167 4 16V18C4 18.55 4.19583 19.0208 4.5875 19.4125Z" fill="white"/>
</svg>
