<svg width="24" height="24" viewBox="0 0 24 24" fill="none" xmlns="http://www.w3.org/2000/svg">
<path fill-rule="evenodd" clip-rule="evenodd" d="M9.175 10.825C9.95833 11.6083 10.9 12 12 12C13.1 12 14.0417 11.6083 14.825 10.825C15.6083 10.0417 16 9.1 16 8C16 6.9 15.6083 5.95833 14.825 5.175C14.0417 4.39167 13.1 4 12 4C10.9 4 9.95833 4.39167 9.175 5.175C8.39167 5.95833 8 6.9 8 8C8 9.1 8.39167 10.0417 9.175 10.825ZM4 17.2V18C4 18.55 4.19583 19.0208 4.5875 19.4125C4.97917 19.8042 5.45 20 6 20H18C18.55 20 19.0208 19.8042 19.4125 19.4125C19.8042 19.0208 20 18.55 20 18V17.2C20 16.6333 19.8542 16.1125 19.5625 15.6375C19.2708 15.1625 18.8833 14.8 18.4 14.55C17.3667 14.0333 16.3167 13.6458 15.25 13.3875C14.1833 13.1292 13.1 13 12 13C10.9 13 9.81667 13.1292 8.75 13.3875C7.68333 13.6458 6.63333 14.0333 5.6 14.55C5.11667 14.8 4.72917 15.1625 4.4375 15.6375C4.14583 16.1125 4 16.6333 4 17.2Z" fill="white"/>
</svg>
